<?xml version="1.0" encoding="UTF-8" standalone="no"?>
<svg
   width="1600"
   height="1600"
   viewBox="0 0 1600 1600"
   role="img"
   aria-labelledby="title desc"
   version="1.1"
   id="svg26"
   xmlns="http://www.w3.org/2000/svg"
   xmlns:svg="http://www.w3.org/2000/svg">
  <defs
     id="defs30" />
  <title
     id="title">Hospital del Día Quito Norte</title>
  <desc
     id="desc">Logotipo vectorial azul y rojo con perfil humano, cruz médica y nombre del hospital.</desc>
  <path
     id="rect4"
     style="fill:#ffffff"
     d="M 0,0 H 1600 V 1600 H 0 Z" />
  <!-- Símbolo -->
  <g
     transform="translate(0,2)"
     id="g18">
    <!-- Perfil y cabello azul -->
    <path
       fill="#132d53"
       d="m 770,259 c -55,30 -86,73 -82,120 3,31 -5,47 -28,67 -13,12 -23,23 -23,34 1,11 10,18 21,25 -9,9 -12,17 -5,24 3,4 8,6 13,8 -10,10 -10,18 -2,25 -7,12 -11,25 -7,39 6,21 24,23 49,23 55,-1 82,11 91,51 8,36 -2,70 -25,101 48,-29 70,-76 59,-132 -9,-47 -32,-86 -70,-127 H 706 V 357 h 36 c -8,-34 1,-67 28,-98 z"
       id="path6" />
    <!-- Parte superior azul -->
    <path
       fill="#132d53"
       d="m 777,258 h 47 v 99 h -64 c -3,-38 1,-70 17,-99 z"
       id="path8" />
    <!-- Curva azul derecha -->
    <path
       fill="#132d53"
       d="m 802,516 h 48 c 34,48 42,105 21,143 -8,14 -19,25 -33,34 15,-70 -1,-126 -36,-177 z"
       id="path10" />
    <!-- Cruz roja -->
    <path
       fill="#8d1820"
       d="m 846,259 h 111 v 119 h 115 V 497 H 957 V 617 H 845 V 497 H 728 V 378 h 118 z"
       id="path12" />
    <!-- Cortes blancos que forman la silueta central -->
    <path
       fill="#ffffff"
       d="m 706,357 h 140 v -98 h -22 v 119 h -96 v 119 h 58 c 37,39 60,84 69,132 8,43 2,82 -18,116 34,-25 51,-67 45,-113 -7,-55 -36,-99 -78,-137 -30,-28 -54,-57 -69,-89 -8,-16 -13,-32 -15,-49 z"
       id="path14" />
    <path
       fill="#8d1820"
       d="m 728,378 h 30 c 12,39 40,77 73,110 l 10,9 H 728 Z"
       id="path16" />
  </g>
  <!-- Nombre -->
  <g
     fill="#132d53"
     text-anchor="middle"
     font-family="Didot, 'Bodoni MT', Bodoni, 'Times New Roman', serif"
     id="g24">
    <g
       aria-label="HOSPITAL DEL DÍA"
       id="text20"
       style="font-size:77px;letter-spacing:1">
      <path
         d="m 404.2854,875 v -3.98535 h 7.14356 v -48.125 h -7.14356 v -4.02295 h 21.91943 v 4.02295 h -7.14355 v 19.40039 h 29.10059 v -19.40039 h -7.14356 v -4.02295 h 21.91943 v 4.02295 h -7.14355 v 48.125 h 7.14355 V 875 h -21.91943 v -3.98535 h 7.14356 v -24.1377 h -29.10059 v 24.1377 h 7.14355 V 875 Z"
         id="path33" />
      <path
         d="m 499.76831,872.06738 q 9.21143,0 13.91113,-6.3164 4.69971,-6.35401 4.69971,-18.76123 0,-12.44483 -4.69971,-18.76123 -4.6997,-6.35401 -13.91113,-6.35401 -9.24902,0 -13.94873,6.35401 -4.69971,6.3164 -4.69971,18.76123 0,12.40722 4.69971,18.76123 4.69971,6.3164 13.94873,6.3164 z m 0,4.02295 q -5.71484,0 -10.52734,-1.87988 -4.77491,-1.87988 -8.42188,-5.52686 -4.21094,-4.21093 -6.27881,-9.5498 -2.03027,-5.33887 -2.03027,-12.14404 0,-6.80518 2.03027,-12.14405 2.06787,-5.37646 6.27881,-9.5874 3.68457,-3.68457 8.42188,-5.52685 4.7373,-1.87989 10.52734,-1.87989 12.21924,0 19.73877,8.0083 7.51953,8.0083 7.51953,21.12989 0,6.72998 -2.06787,12.14404 -2.06787,5.37646 -6.27881,9.5498 -3.68457,3.68457 -8.42187,5.56446 -4.73731,1.84228 -10.48975,1.84228 z"
         id="path35" />
      <path
         d="m 539.4563,872.29297 v -12.7832 l 4.32373,0.0376 q 0.18799,6.3916 3.68457,9.47461 3.53418,3.04541 10.71533,3.04541 6.69238,0 10.18897,-2.63183 3.53418,-2.66944 3.53418,-7.74512 0,-4.06055 -2.14307,-6.24121 -2.10547,-2.18067 -8.94824,-4.24854 l -7.40674,-2.21826 q -8.0459,-2.44385 -11.35449,-6.09082 -3.271,-3.64697 -3.271,-10.00098 0,-7.14355 5.07568,-11.0913 5.07569,-3.94776 14.24952,-3.94776 3.91015,0 8.57226,0.86475 4.66211,0.82715 9.92578,2.44385 v 11.95605 h -4.24853 q -0.63916,-5.94043 -3.98535,-8.57226 -3.3086,-2.66944 -10.11377,-2.66944 -5.94043,0 -9.06104,2.44385 -3.08301,2.40625 -3.08301,7.03076 0,4.02295 2.33106,6.31641 2.33105,2.29345 9.88818,4.54931 l 6.95557,2.06787 q 7.63232,2.29346 10.86572,5.86524 3.271,3.53418 3.271,9.51221 0,8.15869 -5.22608,12.29443 -5.22607,4.13574 -15.56543,4.13574 -4.62451,0 -9.43701,-0.93994 -4.7749,-0.93994 -9.73779,-2.85742 z"
         id="path37" />
      <path
         d="m 605.08667,846.42578 h 9.92578 q 5.60205,0 8.53467,-3.00781 2.93262,-3.04541 2.93262,-8.76026 0,-5.75244 -2.93262,-8.76025 -2.93262,-3.00781 -8.53467,-3.00781 h -9.92578 z M 590.31079,875 v -3.98535 h 7.14356 v -48.125 h -7.14356 v -4.02295 h 26.54395 q 8.42187,0 13.34716,4.28613 4.9253,4.24854 4.9253,11.50488 0,7.21875 -4.9253,11.50489 -4.92529,4.28613 -13.34716,4.28613 h -11.76807 v 20.56592 h 8.68506 V 875 Z"
         id="path39" />
      <path
         d="m 657.89624,871.01465 h 7.14355 V 875 h -21.91943 v -3.98535 h 7.14356 v -48.125 h -7.14356 v -4.02295 h 21.91943 v 4.02295 h -7.14355 z"
         id="path41" />
      <path
         d="m 684.98901,875 v -3.98535 h 7.18116 v -47.67383 h -16.50538 v 8.76025 h -4.62451 V 818.8667 h 49.8545 v 13.23437 h -4.62452 v -8.76025 h -16.50537 v 47.67383 h 7.18115 V 875 Z"
         id="path43" />
      <path
         d="m 733.85083,854.65967 h 20.60352 L 744.15259,827.96533 Z M 717.98462,875 v -3.98535 h 4.92529 l 20.00196,-52.14795 h 6.3164 l 20.03955,52.14795 h 5.52686 V 875 h -20.41553 v -3.98535 h 6.24121 l -4.69971,-12.33203 h -23.61132 l -4.69971,12.33203 h 6.16601 V 875 Z"
         id="path45" />
      <path
         d="m 779.29126,875 v -3.98535 h 7.14355 v -48.125 h -7.14355 v -4.02295 h 21.91943 v 4.02295 h -7.14355 v 47.48584 h 25.6416 v -9.39942 h 4.62451 V 875 Z"
         id="path47" />
      <path
         d="m 871.67603,871.01465 h 6.99316 q 10.94092,0 16.76855,-6.24121 5.86524,-6.24121 5.86524,-17.89649 0,-11.65527 -5.82764,-17.82129 -5.82763,-6.16601 -16.80615,-6.16601 h -6.99316 z M 856.90015,875 v -3.98535 h 7.14355 v -48.125 h -7.14355 v -4.02295 h 22.333 q 14.5127,0 22.5962,7.40674 8.12109,7.40674 8.12109,20.60351 0,13.23438 -8.12109,20.67871 Q 893.70825,875 879.23315,875 Z"
         id="path49" />
      <path
         d="m 919.6355,875 v -3.98535 h 7.14355 v -48.125 h -7.14355 v -4.02295 h 45.19238 v 12.48242 h -4.62451 v -7.85791 h -25.79199 v 18.79883 h 18.38525 v -7.03076 h 4.62451 v 18.64843 h -4.62451 v -7.03076 h -18.38525 v 23.49854 h 26.39355 v -7.85791 h 4.62451 V 875 Z"
         id="path51" />
      <path
         d="m 976.84399,875 v -3.98535 h 7.14356 v -48.125 h -7.14356 v -4.02295 h 21.91944 v 4.02295 h -7.14356 v 47.48584 h 25.64163 v -9.39942 h 4.6245 V 875 Z"
         id="path53" />
      <path
         d="m 1069.2288,871.01465 h 6.9931 q 10.9409,0 16.7686,-6.24121 5.8652,-6.24121 5.8652,-17.89649 0,-11.65527 -5.8276,-17.82129 -5.8277,-6.16601 -16.8062,-6.16601 h -6.9931 z M 1054.4529,875 v -3.98535 h 7.1435 v -48.125 h -7.1435 v -4.02295 h 22.333 q 14.5127,0 22.5962,7.40674 8.1211,7.40674 8.1211,20.60351 0,13.23438 -8.1211,20.67871 Q 1091.261,875 1076.7859,875 Z"
         id="path55" />
      <path
         d="m 1131.9641,871.01465 h 7.1436 V 875 h -21.9195 v -3.98535 h 7.1436 v -48.125 h -7.1436 v -4.02295 h 21.9195 v 4.02295 h -7.1436 z m -1.3911,-67.4126 h 7.4067 l -9.8505,9.92578 h -4.399 z"
         id="path57" />
      <path
         d="m 1159.7712,854.65967 h 20.6036 L 1170.073,827.96533 Z M 1143.905,875 v -3.98535 h 4.9253 l 20.002,-52.14795 h 6.3164 l 20.0395,52.14795 h 5.5269 V 875 h -20.4155 v -3.98535 h 6.2412 l -4.6997,-12.33203 h -23.6114 l -4.6997,12.33203 h 6.166 V 875 Z"
         id="path59" />
    </g>
    <g
       aria-label="QUITO NORTE"
       id="text22"
       style="font-weight:700;font-size:139px;letter-spacing:-3">
      <path
         d="m 299.65479,1081.9683 q -25.65528,-0.4073 -39.97608,-14.253 -14.25293,-13.8457 -14.25293,-38.2793 0,-24.5693 14.52442,-38.55075 14.59228,-14.04931 40.11181,-14.04931 25.5874,0 40.11182,13.98144 14.52441,13.98142 14.52441,38.61862 0,21.583 -11.19873,35.0215 -11.13086,13.4385 -31.76367,16.6284 3.59717,3.8687 8.75537,5.5655 5.1582,1.6967 13.37061,1.6967 h 3.46142 v 16.6963 h -1.96826 q -12.89551,0 -21.51514,-5.5654 -8.61963,-5.5654 -14.18505,-17.5107 z m 0.40722,-8.2124 q 12.96338,0 19.27539,-10.9273 6.31201,-10.9272 6.31201,-33.3926 0,-22.5332 -6.31201,-33.46041 -6.31201,-10.92725 -19.27539,-10.92725 -12.89551,0 -19.27539,11.06299 -6.31201,10.99507 -6.31201,33.32467 0,22.2618 6.31201,33.3247 6.37988,10.9952 19.27539,10.9952 z"
         id="path62" />
      <path
         d="m 375.31738,986.88086 h -12.89551 v -8.2124 h 52.125 v 8.2124 H 401.5835 v 50.69974 q 0,18.936 5.90478,26.5376 5.90479,7.5337 20.22559,7.5337 13.98144,0 19.81836,-7.6016 5.90478,-7.6694 5.90478,-26.4697 V 986.88086 H 440.5415 v -8.2124 h 35.29297 v 8.2124 h -12.96338 v 52.12504 q 0,23.2119 -10.04492,33.1211 -10.04492,9.8413 -33.73193,9.8413 -23.55127,0 -33.66406,-9.9771 -10.1128,-9.977 -10.1128,-33.1211 z"
         id="path64" />
      <path
         d="m 482.4043,1080 v -8.2124 h 12.96338 V 986.88086 H 482.4043 v -8.2124 h 52.125 v 8.2124 h -13.03125 v 84.90674 H 534.5293 V 1080 Z"
         id="path66" />
      <path
         d="m 563.08936,1080 v -8.2124 h 13.43847 v -83.8208 h -27.75928 v 16.0176 h -9.29834 v -25.31594 h 100.44922 v 25.31594 h -9.16259 v -16.0176 h -27.96289 v 83.8208 h 13.50634 V 1080 Z"
         id="path68" />
      <path
         d="m 698.81787,1073.7559 q 12.96338,0 19.27539,-10.9273 6.31201,-10.9272 6.31201,-33.3926 0,-22.5332 -6.31201,-33.46041 -6.31201,-10.92725 -19.27539,-10.92725 -12.89551,0 -19.27539,11.06299 -6.31201,10.99507 -6.31201,33.32467 0,22.2618 6.31201,33.3247 6.37988,10.9952 19.27539,10.9952 z m 0,8.2124 q -25.5874,0 -40.11182,-13.9815 -14.52441,-13.9814 -14.52441,-38.5508 0,-24.5693 14.52441,-38.55075 14.59229,-14.04931 40.11182,-14.04931 25.5874,0 40.11182,13.98144 14.52441,13.98142 14.52441,38.61862 0,24.5694 -14.59228,38.5508 -14.52442,13.9815 -40.04395,13.9815 z"
         id="path70" />
      <path
         d="m 807.92725,1080 v -8.2124 h 12.96337 v -84.90674 h -12.96337 v -8.2124 h 31.6958 l 61.15185,71.73974 v -63.52734 h -12.89551 v -8.2124 h 35.42872 v 8.2124 H 910.34473 V 1080 H 892.5625 l -62.10205,-73.2329 v 65.0205 h 12.89551 V 1080 Z"
         id="path72" />
      <path
         d="m 986.34668,1073.7559 q 12.96338,0 19.27542,-10.9273 6.312,-10.9272 6.312,-33.3926 0,-22.5332 -6.312,-33.46041 -6.31204,-10.92725 -19.27542,-10.92725 -12.89551,0 -19.27539,11.06299 -6.31201,10.99507 -6.31201,33.32467 0,22.2618 6.31201,33.3247 6.37988,10.9952 19.27539,10.9952 z m 0,8.2124 q -25.5874,0 -40.11182,-13.9815 -14.52441,-13.9814 -14.52441,-38.5508 0,-24.5693 14.52441,-38.55075 14.59229,-14.04931 40.11182,-14.04931 25.58742,0 40.11182,13.98144 14.5244,13.98142 14.5244,38.61862 0,24.5694 -14.5923,38.5508 -14.5244,13.9815 -40.04392,13.9815 z"
         id="path74" />
      <path
         d="m 1117.7314,1030.522 q 6.0406,0.8823 10.1807,4.0044 4.1401,3.122 7.1943,9.0268 l 14.7959,28.2344 h 10.3843 V 1080 h -33.3247 l -16.1533,-30.6099 q -4.6831,-9.5019 -8.0088,-12.081 -3.2578,-2.647 -9.0947,-2.647 h -4.1402 v 37.1255 h 13.0313 V 1080 h -52.125 v -8.2124 h 12.9634 v -84.90674 h -12.9634 v -8.2124 h 57.8262 q 17.6464,0 27.2163,7.12646 9.6377,7.0586 9.6377,20.08988 0,10.5879 -6.855,16.7641 -6.7871,6.1084 -20.565,7.8731 z m -28.1665,-4.0044 h 8.8912 q 9.5019,0 14.5922,-5.1582 5.1582,-5.1582 5.1582,-14.7281 0,-9.56978 -5.1582,-14.66011 -5.0903,-5.09033 -14.5922,-5.09033 h -8.8912 z"
         id="path76" />
      <path
         d="m 1179.209,1080 v -8.2124 h 13.4385 v -83.8208 h -27.7593 v 16.0176 h -9.2984 v -25.31594 h 100.4493 v 25.31594 h -9.1626 v -16.0176 h -27.9629 v 83.8208 h 13.5063 V 1080 Z"
         id="path78" />
      <path
         d="m 1260.98,1080 v -8.2124 h 12.9634 V 986.88086 H 1260.98 v -8.2124 h 91.083 v 23.89064 h -9.3662 v -14.5923 h -42.6231 v 32.5103 h 26.5376 v -12.8956 h 9.2984 v 35.0215 h -9.2984 v -12.8955 h -26.5376 v 40.9942 h 43.9126 v -14.5923 h 9.2984 V 1080 Z"
         id="path80" />
    </g>
  </g>
</svg>
